<svg id="ae9042c4-ecce-460e-9f88-b0482f2c92cd" xmlns="http://www.w3.org/2000/svg" width="151.618" height="147.997" viewBox="0 0 151.618 147.997"><path d="M96.253,33.282H55.4a3.517,3.517,0,0,0-3.512,3.512v90.8l-.468.143L41.4,130.806a1.875,1.875,0,0,1-2.339-1.243L9.245,32.184a1.873,1.873,0,0,1,1.243-2.339l15.444-4.729,44.775-13.7L86.151,6.682a1.878,1.878,0,0,1,1.427.135,1.871,1.871,0,0,1,.912,1.106l7.62,24.891Z" fill="#f7f8f8"/><path d="M105.168,32.815l-9.184-30a3.979,3.979,0,0,0-3.425-2.8,3.96,3.96,0,0,0-1.545.157L69.3,6.821,24.528,20.528,2.814,27.177a3.985,3.985,0,0,0-2.641,4.97l31.39,102.525a3.985,3.985,0,0,0,3.807,2.816,3.917,3.917,0,0,0,1.163-.175l14.885-4.556.469-.145v-.489l-.469.142-15.023,4.6a3.515,3.515,0,0,1-4.385-2.33L.623,32.009a3.507,3.507,0,0,1,2.329-4.385l21.714-6.648,44.772-13.7L91.152.622A3.574,3.574,0,0,1,92.184.467a3.516,3.516,0,0,1,3.353,2.484l9.142,29.864.145.468h.487Z" fill="#545e56"/><path d="M28.72,29.922A2.11,2.11,0,0,1,26.7,28.431l-3.016-9.849a2.1,2.1,0,0,1,.154-1.605,2.111,2.111,0,0,1,1.244-1.027L66.276,3.34a2.11,2.11,0,0,1,2.631,1.4l3.016,9.85a2.11,2.11,0,0,1-1.4,2.631l-41.19,12.61A2.07,2.07,0,0,1,28.72,29.922Z" fill="#328287"/><path d="M44.515,10.522a4.683,4.683,0,1,0-4.682-4.683A4.683,4.683,0,0,0,44.515,10.522Z" fill="#328287"/><path d="M44.516,8.8a2.965,2.965,0,1,0-2.965-2.965A2.965,2.965,0,0,0,44.516,8.8Z" fill="#fff"/><path d="M141.083,136.291H61.953a1.99,1.99,0,0,1-1.99-1.99V39.486a1.992,1.992,0,0,1,1.99-1.99h79.13a1.994,1.994,0,0,1,1.99,1.99V134.3a1.992,1.992,0,0,1-1.99,1.99Z" fill="#e3e7e7"/><path d="M104.679,32.814H55.4a3.984,3.984,0,0,0-3.98,3.98v95.471l.468-.143V36.794A3.517,3.517,0,0,1,55.4,33.282h49.426Zm42.959,0H55.4a3.984,3.984,0,0,0-3.98,3.98V144.017A3.984,3.984,0,0,0,55.4,148h92.24a3.984,3.984,0,0,0,3.98-3.98V36.794a3.984,3.984,0,0,0-3.98-3.98Zm3.512,111.2a3.517,3.517,0,0,1-3.512,3.512H55.4a3.517,3.517,0,0,1-3.512-3.512V36.794A3.517,3.517,0,0,1,55.4,33.282h92.24a3.517,3.517,0,0,1,3.512,3.512Z" fill="#545e56"/><path d="M123.056,43.115H79.979a2.11,2.11,0,0,1-2.107-2.107v-10.3A2.11,2.11,0,0,1,79.979,28.6h43.077a2.11,2.11,0,0,1,2.107,2.107v10.3a2.11,2.11,0,0,1-2.107,2.107Z" fill="#328287"/><path d="M101.517,29.3a4.682,4.682,0,1,0-4.682-4.682A4.682,4.682,0,0,0,101.517,29.3Z" fill="#328287"/><path d="M101.518,27.472a2.852,2.852,0,1,0-2.852-2.852A2.852,2.852,0,0,0,101.518,27.472Z" fill="#fff"/></svg>