<svg id="adc8d6db-69eb-43ea-93ca-08f59d6d366c" data-name="Layer 1" xmlns="http://www.w3.org/2000/svg" width="118" height="180" viewBox="0 0 118 180"><title>logo-text</title><path d="M26.044,40.727,30.2,18.773h6.336L29.689,49.627h-6.4l-5.022-20.64-5.023,20.64h-6.4L0,18.773H6.336l4.175,21.911L15.6,18.773h5.382ZM8.371,94.556v10.871H2.013V74.573H14.05a13.852,13.852,0,0,1,6.1,1.271,9.344,9.344,0,0,1,4.069,3.624,10.024,10.024,0,0,1,1.419,5.319,8.874,8.874,0,0,1-3.115,7.162q-3.093,2.607-8.582,2.607Zm0-5.149H14.05a5.542,5.542,0,0,0,3.835-1.187,4.3,4.3,0,0,0,1.336-3.391,5.09,5.09,0,0,0-1.336-3.666A4.987,4.987,0,0,0,14.2,79.722H8.371Zm38.4,9.663H35.629l-2.12,6.357H26.75L38.235,74.573h5.891l11.55,30.854h-6.76Zm-9.43-5.15h7.714L41.181,82.371Zm35.735.212H68.015v11.3H61.658V74.573H73.122q5.467,0,8.435,2.437A8.411,8.411,0,0,1,84.523,83.9a9.488,9.488,0,0,1-1.377,5.276,9.281,9.281,0,0,1-4.133,3.349l6.676,12.609v.3H78.865Zm-5.065-5.149h5.129a5.281,5.281,0,0,0,3.708-1.208,4.39,4.39,0,0,0,1.314-3.369,4.643,4.643,0,0,0-1.25-3.434,5.118,5.118,0,0,0-3.794-1.25H68.015Zm34.126,4.069-3.308,3.56v8.815H92.475V74.573h6.358V88.559l2.8-3.836,7.865-10.15h7.818l-10.955,13.71,11.275,17.144h-7.567Zm-76.1,59.275L30.2,130.373h6.336l-6.845,30.854h-6.4l-5.022-20.64-5.023,20.64h-6.4L0,130.373H6.336l4.175,21.911L15.6,130.373h5.382Z" fill="#323031"/></svg>