<svg width="100%" height="100%" viewBox="0 0 0 0" fill="none" xmlns="http://www.w3.org/2000/svg">

  <path id="arrow-drop-down" fill-rule="evenodd" clip-rule="evenodd" d="M7 10l5 5 5-5z"/>
  <path id="arrow-left" fill-rule="evenodd" clip-rule="evenodd" d="M9,19l1.41-1.41L5.83,13H22V11H5.83l4.59-4.59L9,5l-7,7L9,19z"/>
  <path id="arrow-sortdown" fill-rule="evenodd" clip-rule="evenodd" d="M17 14L12 19L7 14L17 14Z"/>
  <path id="arrow-sortup" fill-rule="evenodd" clip-rule="evenodd" d="M7 10L12 5L17 10H7Z"/>
  <g id="arrow-sortupdown">
    <path fill-rule="evenodd" clip-rule="evenodd" d="M17 14L12 19L7 14L17 14Z"/>
    <path fill-rule="evenodd" clip-rule="evenodd" d="M7 10L12 5L17 10H7Z"/>
  </g>
  <path id="check" fill-rule="evenodd" clip-rule="evenodd" d="M9 16.2L4.8 12l-1.4 1.4L9 19 21 7l-1.4-1.4L9 16.2z"/>
  <path id="check-alt" fill-rule="evenodd" clip-rule="evenodd" d="M18.652,5.25,21,7.632,10.059,18.75,3,11.6,5.348,9.221l4.711,4.764Z"/>
  <path id="chevron-down" fill-rule="evenodd" clip-rule="evenodd" d="M16.59 8.59009L12 13.1701L7.41 8.59009L6 10.0001L12 16.0001L18 10.0001L16.59 8.59009Z"/>
  <path id="chevron-up" fill-rule="evenodd" clip-rule="evenodd" d="M12 8L6 14L7.41 15.41L12 10.83L16.59 15.41L18 14L12 8Z"/>
  <path id="chevron-left" fill-rule="evenodd" clip-rule="evenodd" d="M15.41 7.41L14 6L8 12L14 18L15.41 16.59L10.83 12L15.41 7.41Z"/>
  <path id="chevron-right" fill-rule="evenodd" clip-rule="evenodd" d="M9.99984 6L8.58984 7.41L13.1698 12L8.58984 16.59L9.99984 18L15.9998 12L9.99984 6Z"/>
  <g id="clock">
    <path fill-rule="evenodd" clip-rule="evenodd" d="M11.99 2C6.47 2 2 6.48 2 12C2 17.52 6.47 22 11.99 22C17.52 22 22 17.52 22 12C22 6.48 17.52 2 11.99 2ZM12 20C7.58 20 4 16.42 4 12C4 7.58 7.58 4 12 4C16.42 4 20 7.58 20 12C20 16.42 16.42 20 12 20Z" />
    <path fill-rule="evenodd" clip-rule="evenodd" d="M12.5 7H11V13L16.25 16.15L17 14.92L12.5 12.25V7Z" />
  </g>
  <path id="close" fill-rule="evenodd" clip-rule="evenodd" d="M19 6.41L17.59 5 12 10.59 6.41 5 5 6.41 10.59 12 5 17.59 6.41 19 12 13.41 17.59 19 19 17.59 13.41 12 19 6.41z"/>
  <path id="drag" fill-rule="evenodd" clip-rule="evenodd" d="M10.783,18.012a2,2,0,1,1-2-2A2,2,0,0,1,10.783,18.012Zm-2-8a2,2,0,1,0,2,2A2,2,0,0,0,8.783,10.012Zm0-6a2,2,0,1,0,2,2A2,2,0,0,0,8.783,4.012Zm6,4a2,2,0,1,0-2-2A2,2,0,0,0,14.783,8.012Zm0,2a2,2,0,1,0,2,2A2,2,0,0,0,14.783,10.012Zm0,6a2,2,0,1,0,2,2A2,2,0,0,0,14.783,16.012Z"/>
  <path id="edit" fill-rule="evenodd" clip-rule="evenodd" d="M3 17.2501V21.0001H6.75L17.81 9.94006L14.06 6.19006L3 17.2501ZM20.71 7.04006C21.1 6.65006 21.1 6.02006 20.71 5.63006L18.37 3.29006C17.98 2.90006 17.35 2.90006 16.96 3.29006L15.13 5.12006L18.88 8.87006L20.71 7.04006Z"/>
  <path id="exchange-alt" fill-rule="evenodd" clip-rule="evenodd" d="M5.938,22H5.313a.938.938,0,0,1-.937-.938V7H2.5a.938.938,0,0,1-.663-1.6L4.963,2.275a.936.936,0,0,1,1.326,0L9.414,5.4A.938.938,0,0,1,8.751,7H6.876V21.062A.938.938,0,0,1,5.938,22Zm7.5-20a.938.938,0,0,1,.938.938V17h1.875a.938.938,0,0,1,.663,1.6l-3.125,3.125a.936.936,0,0,1-1.326,0L9.338,18.6A.938.938,0,0,1,10,17h1.875V2.938A.938.938,0,0,1,12.813,2Z"/>
  <g id="info-circle">
    <path fill-rule="evenodd" clip-rule="evenodd" d="M10.667,15.615V12.51h-.43a.43.43,0,0,1-.43-.429V11.054a.43.43,0,0,1,.43-.429h2.406a.429.429,0,0,1,.43.429v4.561H13.5a.43.43,0,0,1,.43.429v1.027a.43.43,0,0,1-.43.429H10.237a.43.43,0,0,1-.43-.429V16.044a.43.43,0,0,1,.43-.429Zm2.749-7.568A1.547,1.547,0,1,1,11.87,6.5,1.547,1.547,0,0,1,13.416,8.047Z"/>
    <path fill-rule="evenodd" clip-rule="evenodd" d="M11.739,4a8,8,0,1,1-8,8,8.009,8.009,0,0,1,8-8m0-2a10,10,0,1,0,10,10,10,10,0,0,0-10-10Z"/>
  </g>
  <path id="mood-bad" fill-rule="evenodd" clip-rule="evenodd" d="M11.99 2C6.47 2 2 6.48 2 12s4.47 10 9.99 10C17.52 22 22 17.52 22 12S17.52 2 11.99 2zM12 20c-4.42 0-8-3.58-8-8s3.58-8 8-8 8 3.58 8 8-3.58 8-8 8zm3.5-9c.83 0 1.5-.67 1.5-1.5S16.33 8 15.5 8 14 8.67 14 9.5s.67 1.5 1.5 1.5zm-7 0c.83 0 1.5-.67 1.5-1.5S9.33 8 8.5 8 7 8.67 7 9.5 7.67 11 8.5 11zm3.5 3c-2.33 0-4.31 1.46-5.11 3.5h10.22c-.8-2.04-2.78-3.5-5.11-3.5z"/>
  <path id="person-outline" fill-rule="evenodd" clip-rule="evenodd" d="M12 5.9c1.16 0 2.1.94 2.1 2.1s-.94 2.1-2.1 2.1S9.9 9.16 9.9 8s.94-2.1 2.1-2.1m0 9c2.97 0 6.1 1.46 6.1 2.1v1.1H5.9V17c0-.64 3.13-2.1 6.1-2.1M12 4C9.79 4 8 5.79 8 8s1.79 4 4 4 4-1.79 4-4-1.79-4-4-4zm0 9c-2.67 0-8 1.34-8 4v3h16v-3c0-2.66-5.33-4-8-4z"/>
  <path id="pin" fill-rule="evenodd" clip-rule="evenodd" d="M12 2C8.13 2 5 5.13 5 9c0 5.25 7 13 7 13s7-7.75 7-13c0-3.87-3.13-7-7-7zm0 9.5c-1.38 0-2.5-1.12-2.5-2.5s1.12-2.5 2.5-2.5 2.5 1.12 2.5 2.5-1.12 2.5-2.5 2.5z"/>
  <g id="spinner">
    <path fill-rule="evenodd" clip-rule="evenodd" d="M13 1V7H11V1H13Z" />
    <path fill-rule="evenodd" clip-rule="evenodd" d="M13 17V23H11V17H13Z" />
    <path fill-rule="evenodd" clip-rule="evenodd" d="M4.92984 3.51587L9.17405 7.76008L7.75984 9.1743L3.51562 4.93008L4.92984 3.51587Z" />
    <path fill-rule="evenodd" clip-rule="evenodd" d="M16.2404 14.8257L20.4846 19.0699L19.0704 20.4841L14.8262 16.2399L16.2404 14.8257Z" />
    <path fill-rule="evenodd" clip-rule="evenodd" d="M1 11H7V13H1V11Z" />
    <path fill-rule="evenodd" clip-rule="evenodd" d="M17 11H23V13H17V11Z" />
    <path fill-rule="evenodd" clip-rule="evenodd" d="M9.17405 16.2399L4.92984 20.4841L3.51562 19.0699L7.75984 14.8257L9.17405 16.2399Z" />
    <path fill-rule="evenodd" clip-rule="evenodd" d="M20.4846 4.93008L16.2404 9.1743L14.8262 7.76008L19.0704 3.51587L20.4846 4.93008Z" />
  </g>
  <path id="timer" fill-rule="evenodd" clip-rule="evenodd" d="M15 1H9v2h6V1zm-4 13h2V8h-2v6zm8.03-6.61l1.42-1.42c-.43-.51-.9-.99-1.41-1.41l-1.42 1.42C16.07 4.74 14.12 4 12 4c-4.97 0-9 4.03-9 9s4.02 9 9 9 9-4.03 9-9c0-2.12-.74-4.07-1.97-5.61zM12 20c-3.87 0-7-3.13-7-7s3.13-7 7-7 7 3.13 7 7-3.13 7-7 7z"/>

  // MENU
  <path id="chart" fill-rule="evenodd" clip-rule="evenodd" d="M19 3H5C3.9 3 3 3.9 3 5V19C3 20.1 3.9 21 5 21H19C20.1 21 21 20.1 21 19V5C21 3.9 20.1 3 19 3ZM9 17H7V10H9V17ZM13 17H11V7H13V17ZM17 17H15V13H17V17Z"/>
  <path id="update" fill-rule="evenodd" clip-rule="evenodd" d="M21,10.12h-6.78l2.74-2.82c-2.73-2.7-7.15-2.8-9.88-0.1c-2.73,2.71-2.73,7.08,0,9.79s7.15,2.71,9.88,0 C18.32,15.65,19,14.08,19,12.1h2c0,1.98-0.88,4.55-2.64,6.29c-3.51,3.48-9.21,3.48-12.72,0c-3.5-3.47-3.53-9.11-0.02-12.58 s9.14-3.47,12.65,0L21,3V10.12z M12.5,8v4.25l3.5,2.08l-0.72,1.21L11,13V8H12.5z"/>
  <path id="label" fill-rule="evenodd" clip-rule="evenodd" d="M17.63 5.84C17.27 5.33 16.67 5 16 5L5 5.01C3.9 5.01 3 5.9 3 7v10c0 1.1.9 1.99 2 1.99L16 19c.67 0 1.27-.33 1.63-.84L22 12l-4.37-6.16z"/>
  <path id="check-circle" fill-rule="evenodd" clip-rule="evenodd" d="M12 2C6.48 2 2 6.48 2 12C2 17.52 6.48 22 12 22C17.52 22 22 17.52 22 12C22 6.48 17.52 2 12 2ZM10 17L5 12L6.41 10.59L10 14.17L17.59 6.58L19 8L10 17Z"/>
  <path id="close-circle" fill-rule="evenodd" clip-rule="evenodd" d="M12 2C6.47 2 2 6.47 2 12C2 17.53 6.47 22 12 22C17.53 22 22 17.53 22 12C22 6.47 17.53 2 12 2ZM17 15.59L15.59 17L12 13.41L8.41 17L7 15.59L10.59 12L7 8.41L8.41 7L12 10.59L15.59 7L17 8.41L13.41 12L17 15.59Z"/>
  <path id="clipboard-check" fill-rule="evenodd" clip-rule="evenodd" d="M19 3H14.82C14.4 1.84 13.3 1 12 1C10.7 1 9.6 1.84 9.18 3H5C3.9 3 3 3.9 3 5V19C3 20.1 3.9 21 5 21H19C20.1 21 21 20.1 21 19V5C21 3.9 20.1 3 19 3ZM12 3C12.55 3 13 3.45 13 4C13 4.55 12.55 5 12 5C11.45 5 11 4.55 11 4C11 3.45 11.45 3 12 3ZM10 17L6 13L7.41 11.59L10 14.17L16.59 7.58L18 9L10 17Z"/>
  <path id="clipboard" fill-rule="evenodd" clip-rule="evenodd" d="M19 4H14.82C14.4 2.84 13.3 2 12 2C10.7 2 9.6 2.84 9.18 4H5C3.9 4 3 4.9 3 6V20C3 21.1 3.9 22 5 22H19C20.1 22 21 21.1 21 20V6C21 4.9 20.1 4 19 4ZM12 4C12.55 4 13 4.45 13 5C13 5.55 12.55 6 12 6C11.45 6 11 5.55 11 5C11 4.45 11.45 4 12 4ZM14 18H7V16H14V18ZM17 14H7V12H17V14ZM17 10H7V8H17V10Z"/>
  <g id="feed">
    <circle fill-rule="evenodd" clip-rule="evenodd" cx="6.18" cy="17.82" r="2.18"/>
    <path fill-rule="evenodd" clip-rule="evenodd" d="M4 4.44v2.83c7.03 0 12.73 5.7 12.73 12.73h2.83c0-8.59-6.97-15.56-15.56-15.56zm0 5.66v2.83c3.9 0 7.07 3.17 7.07 7.07h2.83c0-5.47-4.43-9.9-9.9-9.9z"/>
  </g>
  <path id="library-books" fill-rule="evenodd" clip-rule="evenodd" d="M4 6H2v14c0 1.1.9 2 2 2h14v-2H4V6zm16-4H8c-1.1 0-2 .9-2 2v12c0 1.1.9 2 2 2h12c1.1 0 2-.9 2-2V4c0-1.1-.9-2-2-2zm-1 9H9V9h10v2zm-4 4H9v-2h6v2zm4-8H9V5h10v2z"/>
  <path id="power" fill-rule="evenodd" clip-rule="evenodd" d="M13 3H11V13H13V3ZM17.83 5.17L16.41 6.59C17.99 7.86 19 9.81 19 12C19 15.87 15.87 19 12 19C8.13 19 5 15.87 5 12C5 9.81 6.01 7.86 7.58 6.58L6.17 5.17C4.23 6.82 3 9.26 3 12C3 16.97 7.03 21 12 21C16.97 21 21 16.97 21 12C21 9.26 19.77 6.82 17.83 5.17Z"/>
  <path id="settings" fill-rule="evenodd" clip-rule="evenodd" d="M19.14,12.94c0.04-0.3,0.06-0.61,0.06-0.94c0-0.32-0.02-0.64-0.07-0.94l2.03-1.58c0.18-0.14,0.23-0.41,0.12-0.61 l-1.92-3.32c-0.12-0.22-0.37-0.29-0.59-0.22l-2.39,0.96c-0.5-0.38-1.03-0.7-1.62-0.94L14.4,2.81c-0.04-0.24-0.24-0.41-0.48-0.41 h-3.84c-0.24,0-0.43,0.17-0.47,0.41L9.25,5.35C8.66,5.59,8.12,5.92,7.63,6.29L5.24,5.33c-0.22-0.08-0.47,0-0.59,0.22L2.74,8.87 C2.62,9.08,2.66,9.34,2.86,9.48l2.03,1.58C4.84,11.36,4.8,11.69,4.8,12s0.02,0.64,0.07,0.94l-2.03,1.58 c-0.18,0.14-0.23,0.41-0.12,0.61l1.92,3.32c0.12,0.22,0.37,0.29,0.59,0.22l2.39-0.96c0.5,0.38,1.03,0.7,1.62,0.94l0.36,2.54 c0.05,0.24,0.24,0.41,0.48,0.41h3.84c0.24,0,0.44-0.17,0.47-0.41l0.36-2.54c0.59-0.24,1.13-0.56,1.62-0.94l2.39,0.96 c0.22,0.08,0.47,0,0.59-0.22l1.92-3.32c0.12-0.22,0.07-0.47-0.12-0.61L19.14,12.94z M12,15.6c-1.98,0-3.6-1.62-3.6-3.6 s1.62-3.6,3.6-3.6s3.6,1.62,3.6,3.6S13.98,15.6,12,15.6z"/>
  <path id="warning" fill-rule="evenodd" clip-rule="evenodd" d="M1 21h22L12 2 1 21zm12-3h-2v-2h2v2zm0-4h-2v-4h2v4z"/>
</svg>
